<?xml version="1.0" encoding="utf-8"?>
<!-- Generator: Adobe Illustrator 21.0.0, SVG Export Plug-In . SVG Version: 6.00 Build 0)  -->
<svg version="1.1" id="图层_3" xmlns="http://www.w3.org/2000/svg" xmlns:xlink="http://www.w3.org/1999/xlink" x="0px" y="0px"
	 viewBox="0 0 200 200" style="enable-background:new 0 0 200 200;" xml:space="preserve">
<style type="text/css">
	.st0{fill:#FFFFFF;}
</style>
<g>
	<path class="st0" d="M26.6,81.7c-6.5,0-11.8,5.3-11.8,11.8v51.9c0,6.5,5.3,11.8,11.8,11.8s11.8-5.4,11.8-11.9V93.4
		C38.3,86.9,33.1,81.7,26.6,81.7z"/>
	<path class="st0" d="M176.4,81.7c-6.5,0-11.8,5.3-11.8,11.8v51.9c0,6.5,5.3,11.8,11.8,11.8c6.5,0,11.8-5.4,11.8-11.9V93.4
		C188.2,86.9,182.9,81.7,176.4,81.7z"/>
	<path class="st0" d="M46.2,164.6c0,7,5.6,12.6,12.6,12.6h85.6c6.8,0,12.5-5.8,12.5-12.6v-83H46.2V164.6z"/>
	<path class="st0" d="M139.4,37.8l8.6-8.6c1.4-1.4,1.4-3.9,0-5.4c-1.4-1.4-3.9-1.4-5.4,0l-9.1,9.1c-9-6.4-20-10.2-31.9-10.2
		c-11.9,0-22.8,3.7-31.8,10.1l-9-9c-1.6-1.4-4-1.4-5.4,0c-1.4,1.6-1.4,4,0,5.4l8.5,8.5C52.9,47.8,46.2,62.1,46.2,78h110.7
		C156.8,62.1,150.1,47.9,139.4,37.8z M81.9,66.1c-4.4,0-8.1-3.7-8.1-8.1s3.7-8.1,8.1-8.1s8.1,3.7,8.1,8.1S86.2,66.1,81.9,66.1z
		 M121.3,66.1c-4.4,0-8.1-3.7-8.1-8.1s3.7-8.1,8.1-8.1s8.1,3.7,8.1,8.1S125.7,66.1,121.3,66.1z"/>
</g>
</svg>
