<svg class="icon" style="width: 1em; height: 1em;vertical-align: middle;fill: currentColor;overflow: hidden;" viewBox="0 0 1095 1095" version="1.1" xmlns="http://www.w3.org/2000/svg" p-id="2484"><!--<path d="M346.915 908.335v49.577C186.078 885.859 79.795 766.005 57.774 572.303c14.381-5.76 37.922-3.501 50.289-11.017 26.173 162.519 110.457 274.109 238.852 347.049z" fill="#EF4444" p-id="2485"></path>--><path d="M991.845 481.063c26.819 239.789-95.848 403.006-245.871 475.714-13.585-73.316 61.391-95.384 90.869-128.285 61.545-68.688 117.359-177.049 101.548-331.391-18.43-179.956-172.896-337.998-352.769-358.118-272.206-30.448-459.82 151.889-475.713 432.949-15.523 5.865-37.941 4.824-53.454 10.688v-96.208c43.672-225.37 178.296-359.777 400.883-406.232h133.625C791.8 121.646 967.158 260.383 991.845 481.063z" fill="#efefef" p-id="2486"></path></svg>