<?xml version="1.0" encoding="utf-8"?>
<!-- Generator: Adobe Illustrator 21.0.0, SVG Export Plug-In . SVG Version: 6.00 Build 0)  -->
<svg version="1.1" id="Layer_1" xmlns="http://www.w3.org/2000/svg" xmlns:xlink="http://www.w3.org/1999/xlink" x="0px" y="0px"
	 viewBox="0 0 200 200" style="enable-background:new 0 0 200 200;" xml:space="preserve">
<style type="text/css">
	.st0{fill:#FA4616;}
</style>
<g>
	<path class="st0" d="M100,188.3c-34.4,0-64.7-12.5-82.4-31.6c18,26.2,48.2,43.3,82.4,43.3c34.2,0,64.3-17.1,82.4-43.3
		C164.7,175.7,134.4,188.3,100,188.3z"/>
	<path class="st0" d="M199.1,86.8c0,0.1,0,0.2,0,0.3c0,35.7-44.4,64.6-99.1,64.6c-54.8,0-99.1-28.9-99.1-64.6c0-0.1,0-0.2,0-0.3
		C0.3,91.1,0,95.5,0,100c0,5,0.4,10,1.1,14.8C1.7,119,2.6,123,3.7,127c10.4,27.8,49.5,48.4,96.3,48.4c46.8,0,86-20.6,96.3-48.4
		c1.1-4,2-8,2.6-12.2c0.7-4.8,1.1-9.8,1.1-14.8C200,95.5,199.7,91.1,199.1,86.8z"/>
	<path class="st0" d="M100,137.5c52.7,0,95.4-27.6,95.4-61.7c0-3.1-0.3-6.1-1-9c-2.1-5.9-4.6-11.5-7.7-16.7
		c-5.1-8.9-11.6-16.9-19.2-23.8c8.7,8.3,13.9,18.2,13.9,29c0,28.7-36.4,51.9-81.3,51.9c-44.9,0-81.3-23.2-81.3-51.9
		c0-10.7,5.1-20.7,13.8-29C25,33.1,18.5,41.1,13.4,50c-3.1,5.3-5.6,10.9-7.7,16.7c-0.7,3-1,6-1,9C4.6,109.9,47.3,137.5,100,137.5z"
		/>
	<path class="st0" d="M100,91.4c29.1,0,54.1-11.4,64.9-27.6c-6.4-6-15.7-12.1-26.1-17c-7.9,8.4-22.3,14-38.8,14
		c-21.9,0-40.2-10-44.4-23.3c13.3-5.1,28.4-8,44.4-8c16.4,0,31.9,3,45.6,8.4c0.2,0.1,0.4,0.2,0.6,0.2c0.8,0.3,1.6,0.6,2.3,1
		c0.3,0.1,0.5,0.2,0.8,0.3c0.7,0.3,1.5,0.7,2.2,1c6.8,3.1,13,6.9,18.5,11.1c0.4-1.9,0.6-3.9,0.6-5.9C170.6,20.4,139,0,100,0
		C61,0,29.4,20.4,29.4,45.7C29.4,70.9,61,91.4,100,91.4z M100,2.6c19.4,0,35.9,7.8,42.4,18.8c-13.3-3.9-27.7-5.9-42.4-5.9
		c-14.7,0-29.1,2-42.4,5.9C64.1,10.4,80.6,2.6,100,2.6z"/>
</g>
</svg>
